<?xml version="1.0" encoding="UTF-8" standalone="no"?>
<!DOCTYPE svg PUBLIC "-//W3C//DTD SVG 1.1//EN"
 "http://www.w3.org/Graphics/SVG/1.1/DTD/svg11.dtd">
<!-- Generated by graphviz version 2.50.0 (0)
 -->
<!-- Title: graphname Pages: 1 -->
<svg width="422pt" height="98pt"
 viewBox="0.00 0.00 422.00 98.00" xmlns="http://www.w3.org/2000/svg" xmlns:xlink="http://www.w3.org/1999/xlink">
<g id="graph0" class="graph" transform="scale(1 1) rotate(0) translate(4 94)">
<title>graphname</title>
<polygon fill="white" stroke="transparent" points="-4,4 -4,-94 418,-94 418,4 -4,4"/>
<!-- a -->
<g id="node1" class="node">
<title>a</title>
<ellipse fill="none" stroke="black" cx="27" cy="-45" rx="27" ry="18"/>
<text text-anchor="middle" x="27" y="-41.3" font-family="Times,serif" font-size="14.00">a</text>
</g>
<!-- b -->
<g id="node2" class="node">
<title>b</title>
<ellipse fill="none" stroke="black" cx="117" cy="-45" rx="27" ry="18"/>
<text text-anchor="middle" x="117" y="-41.3" font-family="Times,serif" font-size="14.00">b</text>
</g>
<!-- a&#45;&gt;b -->
<g id="edge1" class="edge">
<title>a&#45;&gt;b</title>
<path fill="none" stroke="black" d="M54.4,-45C62.39,-45 71.31,-45 79.82,-45"/>
<polygon fill="black" stroke="black" points="79.92,-48.5 89.92,-45 79.92,-41.5 79.92,-48.5"/>
</g>
<!-- c -->
<g id="node3" class="node">
<title>c</title>
<ellipse fill="none" stroke="black" cx="207" cy="-72" rx="27" ry="18"/>
<text text-anchor="middle" x="207" y="-68.3" font-family="Times,serif" font-size="14.00">c</text>
</g>
<!-- b&#45;&gt;c -->
<g id="edge2" class="edge">
<title>b&#45;&gt;c</title>
<path fill="none" stroke="black" d="M142.05,-52.38C151.44,-55.26 162.36,-58.61 172.5,-61.72"/>
<polygon fill="black" stroke="black" points="171.7,-65.14 182.29,-64.72 173.75,-58.45 171.7,-65.14"/>
</g>
<!-- d -->
<g id="node6" class="node">
<title>d</title>
<ellipse fill="none" stroke="black" cx="207" cy="-18" rx="27" ry="18"/>
<text text-anchor="middle" x="207" y="-14.3" font-family="Times,serif" font-size="14.00">d</text>
</g>
<!-- b&#45;&gt;d -->
<g id="edge5" class="edge">
<title>b&#45;&gt;d</title>
<path fill="none" stroke="black" d="M142.05,-37.62C151.44,-34.74 162.36,-31.39 172.5,-28.28"/>
<polygon fill="black" stroke="black" points="173.75,-31.55 182.29,-25.28 171.7,-24.86 173.75,-31.55"/>
</g>
<!-- e -->
<g id="node4" class="node">
<title>e</title>
<ellipse fill="none" stroke="black" cx="297" cy="-72" rx="27" ry="18"/>
<text text-anchor="middle" x="297" y="-68.3" font-family="Times,serif" font-size="14.00">e</text>
</g>
<!-- c&#45;&gt;e -->
<g id="edge3" class="edge">
<title>c&#45;&gt;e</title>
<path fill="none" stroke="black" d="M234.4,-72C242.39,-72 251.31,-72 259.82,-72"/>
<polygon fill="black" stroke="black" points="259.92,-75.5 269.92,-72 259.92,-68.5 259.92,-75.5"/>
</g>
<!-- f -->
<g id="node5" class="node">
<title>f</title>
<ellipse fill="none" stroke="black" cx="387" cy="-72" rx="27" ry="18"/>
<text text-anchor="middle" x="387" y="-68.3" font-family="Times,serif" font-size="14.00">f</text>
</g>
<!-- e&#45;&gt;f -->
<g id="edge4" class="edge">
<title>e&#45;&gt;f</title>
<path fill="none" stroke="black" d="M324.4,-72C332.39,-72 341.31,-72 349.82,-72"/>
<polygon fill="black" stroke="black" points="349.92,-75.5 359.92,-72 349.92,-68.5 349.92,-75.5"/>
</g>
</g>
</svg>
